<?xml version="1.0" encoding="UTF-8" standalone="no"?>
<svg
   width="550"
   height="550"
   viewBox="0 0 550 550"
   fill="none"
   version="1.1"
   id="svg1923"
   sodipodi:docname="favicon.svg"
   inkscape:version="1.2.2 (732a01da63, 2022-12-09)"
   xmlns:inkscape="http://www.inkscape.org/namespaces/inkscape"
   xmlns:sodipodi="http://sodipodi.sourceforge.net/DTD/sodipodi-0.dtd"
   xmlns="http://www.w3.org/2000/svg"
   xmlns:svg="http://www.w3.org/2000/svg">
  <defs
     id="defs1927" />
  <sodipodi:namedview
     id="namedview1925"
     pagecolor="#505050"
     bordercolor="#eeeeee"
     borderopacity="1"
     inkscape:showpageshadow="0"
     inkscape:pageopacity="0"
     inkscape:pagecheckerboard="0"
     inkscape:deskcolor="#505050"
     showgrid="false"
     inkscape:zoom="1.0939896"
     inkscape:cx="261.42845"
     inkscape:cy="244.06082"
     inkscape:window-width="1920"
     inkscape:window-height="1017"
     inkscape:window-x="-8"
     inkscape:window-y="-8"
     inkscape:window-maximized="1"
     inkscape:current-layer="layer4" />
  <g
     inkscape:groupmode="layer"
     id="layer3"
     inkscape:label="Layer 1" />
  <g
     inkscape:groupmode="layer"
     id="layer4"
     inkscape:label="Layer 2">
    <path
       d="m 222.866,514.54456 -4.951,-6.546 v -73.292 c 0,-59.858 0.636,-73.615 3.471,-75.053 6.09,-3.089 6.432,0.824 6.432,73.612 v 71.46 h 40.849 40.85 v -48.714 -48.714 l -24.468,-1.299 c -33.886,-1.8 -32.474,0.888 -32.474,-61.816 0,-64.429 -1.257,-62.02 32.362,-62.02 h 24.58 l -0.056,-22.093 c -0.056,-24.366 -3.836,-37.494 -18.462,-64.181 l -8.717,-15.904 v -45.464 -45.464798 h -13.821 -13.822 l 0.825,45.489798 0.823,45.489 -8.159,14.243 c -4.488,7.833 -10.883,21.607 -14.212,30.608 l -6.052,16.364 -0.028,47.732 c -0.028,49.077 -0.519,52.894 -6.455,49.883 -2.771,-1.406 -3.472,-11.955 -3.472,-52.248 0,-56.814 1.267,-63.442 17.592,-92.027 l 9.993,-17.498 -0.794,-66.583 -0.795,-66.583701 4.716,-6.8916 c 3.905,-5.7048 7.582,-6.8914 21.36,-6.8914 24.166,0 23.585,-1.9657 22.685,76.804901 l -0.754,65.9738 8.86,16.163 c 4.874,8.89 11.34,22.791 14.371,30.892 l 5.51,14.728 0.744,134.36 0.744,134.36 -5.256,8.834 -5.256,8.833 h -41.908 -41.908 z m 89.127,-171.95 v -47.577 l -24.139,0.936 -24.138,0.937 -0.687,46.64 -0.687,46.64 h 24.826 24.825 z"
       fill="#9c9c9c"
       id="path1781"
       style="fill:#1a1a1a" />
    <path
       d="m 347.601,509.83756 c -3.891,-6.234 -4.524,-11.924 -2.808,-25.214 1.22,-9.44 2.403,-60.352 2.629,-113.139 0.356,-82.95 1.043,-95.975 5.061,-95.975 6.177,0 11.993,187.094 6.172,198.511 -1.95,3.824 -3.09,11.964 -2.534,18.09 l 1.011,11.137 51.583,0.89 51.582,0.89 1.212,-13.334 c 0.666,-7.333 -0.106,-14.187 -1.715,-15.231 -1.813,-1.177 -2.142,-55.167 -0.864,-141.976 l 2.061,-140.077 -15.83,-16.826 c -10.028,-10.658 -16.607,-20.838 -17.95,-27.771 -2.941,-15.193 -34.435,-19.382 -34.435,-4.581 0,5.571 -5.649,14.782 -17.047,27.796 l -17.047,19.464 v 29.117 c 0,27.74 -2.978,37.475 -9.387,30.681 -1.456,-1.544 -3.078,-16.122 -3.604,-32.396 l -0.956,-29.59 17.35,-19.675 17.35,-19.676 -1.481,-56.534298 c -1.781,-67.943903 -3.223,-65.226403 33.893,-63.863503 l 25.87,0.9505 0.367,59.444503 0.367,59.444798 17.728,19.509 17.728,19.51 -0.589,142.277 c -0.324,78.252 -0.336,150.263 -0.023,160.024 0.874,27.568 -109.834,43.53 -125.694,18.123 z M 426.869,96.573062 V 72.172561 h -17.047 -17.046 v 24.400501 24.400498 h 17.046 17.047 z m -46.91,246.713498 c -9.603,-2.682 -12.828,-51.781 -4.009,-61.038 5.738,-6.022 53.567,-7.336 63.521,-1.744 8.991,5.051 8.991,56.534 0,61.585 -5.769,3.241 -49.079,4.112 -59.512,1.197 z m 51.155,-21.416 c 1.028,-4.026 1.888,-12.078 1.912,-17.894 l 0.047,-10.573 h -23.246 -23.245 v 17.894 17.893 h 21.334 c 19.504,0 21.49,-0.628 23.198,-7.32 z m -59.259,-71.247 c -24.636,-25.876 31.927,-54.811 68.961,-35.277 24.782,13.071 11.233,42.541 -15.337,33.36 -14.954,-5.168 -19.58,-4.723 -45.101,4.336 -2.557,0.908 -6.392,-0.18 -8.523,-2.419 z"
       fill="#9c9c9c"
       id="path1785"
       style="fill:#1a1a1a" />
    <path
       d="m 83.497199,516.99656 c -3.2058,-6.549 -3.6775,-28.564 -3.6775,-171.665 v -164.152 l 11.6813,-16.463 c 6.425,-9.054 13.771001,-23.447 16.324001,-31.983 5.95801,-19.919 8.77401,-46.044498 5.29401,-49.121498 -3.59901,-3.1825 -3.38801,-53.475203 0.246,-58.675003 4.333,-6.199301 47.729,-5.486501 51.401,0.8443 1.978,3.4104 2.397,12.9165 1.377,31.265504 -3.818,68.692697 -2.156,78.179697 18.73399,106.943697 l 11.879,16.357 0.656,163.057 c 0.648,161.235 0.6,163.157 -4.306,172.08 l -4.961,9.024 h -50.48499 c -49.492011,0 -50.558011,-0.148 -54.162811,-7.512 z m 102.155801,-6.684 c 1.917,-2.743 2.835,-18.439 2.835,-48.498 v -44.442 l -8.859,-5.229 c -4.872,-2.875 -27.11899,-17.414 -49.43599,-32.307 -22.31801,-14.893 -41.187011,-26.207 -41.932011,-25.141 -2.341,3.349 -1.47,141.899 0.95,151.003 l 2.304,8.67 h 45.651011 c 32.35799,0 46.47799,-1.182 48.48699,-4.056 z m -81.763,-28.9 c 0.702,-5.233 4.463,-6.012 32.65501,-6.76 31.148,-0.826 40.02899,1.329 36.75099,8.918 -1.071,2.478 -13.30199,3.758 -35.91099,3.758 -31.38301,0 -34.22101,-0.501 -33.49501,-5.916 z m 27.31101,-20.269 c -22.49201,-0.867 -27.75801,-2.012 -27.75801,-6.033 0,-4.143 5.853,-4.963 35.43601,-4.963 28.595,0 35.43499,0.903 35.43499,4.676 0,4.484 -8.06199,9.492 -12.99299,8.071 -1.299,-0.374 -14.853,-1.162 -30.12,-1.751 z m 56.86899,-63.677 c -0.741,-5.2 -91.408001,-69.001 -98.057001,-69.001 -4.441,0 -3.835,6.069 1.028,10.297 5.933,5.157 93.522001,63.442 95.848001,63.781 1.07,0.156 1.602,-2.129 1.181,-5.077 z m -2.029,-42.805 -0.08,-17.746 -44.82999,-30.42 c -24.656,-16.731 -46.467011,-30.928 -48.468011,-31.548 -3.001,-0.93 -3.513,2.206 -2.923,17.925 l 0.714,19.051 44.885011,29.969 c 24.686,16.482 46.21299,30.091 47.83699,30.241 2.022,0.187 2.923,-5.325 2.865,-17.472 z m 2.447,-39.116 c 0,-4.604 -8.359,-11.807 -33.07299,-28.501 -21.822,-14.74 -33.073,-24.143 -33.073,-27.64 0,-2.915 1.005,-5.3 2.234,-5.3 1.229,0 15.012,8.366 30.63,18.59 15.61799,10.225 29.49499,18.591 30.83899,18.591 1.577,0 2.443,-18.521 2.443,-52.255 v -52.255 l -9.689,-12.811 c -5.329,-7.046 -12.33999,-19.276 -15.57999,-27.177 l -5.891,-14.365 h -19.696 c -17.699,0 -19.85,0.694 -21.214,6.841 -0.835,3.763 -7.38301,15.907 -14.55301,26.987 -9.947001,15.373 -13.332001,23.313 -14.289001,33.515 -1.97,21.018 0.465,28.86 11.092,35.716 11.128001,7.18 13.329011,17.322 3.003001,13.841 -11.647001,-3.928 -13.583001,-3.74 -13.583001,1.32 0,3.169 17.656001,16.934 48.428011,37.755 26.636,18.022 49.22599,32.889 50.19999,33.038 0.975,0.148 1.772,-2.502 1.772,-5.89 z m -33.95899,-207.206 c -0.812,-5.8092 -1.476,-13.486898 -1.476,-17.061298 0,-5.8259 -1.529,-6.3947 -14.765,-5.4926 l -14.765,1.0063 -1.29,16.055298 -1.289,16.0553 h 17.531 17.531 z m 3.248,-53.658101 v -16.9002 h -15.162 c -8.339,0 -16.843,-0.9233 -18.899,-2.0517 -3.133,-1.7205 -3.736,1.0073 -3.736,16.9003 v 18.951908 h 18.899 18.898 z"
       fill="#9c9c9c"
       id="path1789"
       style="fill:#1a1a1a" />
  </g>
</svg>
