<?xml version="1.0" standalone="no"?>
<!DOCTYPE svg PUBLIC "-//W3C//DTD SVG 20010904//EN"
 "http://www.w3.org/TR/2001/REC-SVG-20010904/DTD/svg10.dtd">
<svg version="1.0" xmlns="http://www.w3.org/2000/svg"
 width="700.000000pt" height="700.000000pt" viewBox="0 0 700.000000 700.000000"
 preserveAspectRatio="xMidYMid meet">
<metadata>
Created by potrace 1.14, written by Peter Selinger 2001-2017
</metadata>
<g transform="translate(0.000000,700.000000) scale(0.100000,-0.100000)"
fill="#000000" stroke="none">
<path d="M1591 6730 c-41 -6 -90 -18 -110 -27 -57 -28 -63 -59 -68 -353 -5
-251 4 -387 28 -416 40 -48 4 -378 -67 -611 -38 -128 -142 -323 -254 -482
l-101 -142 4 -2047 c3 -1532 7 -2067 16 -2126 16 -103 41 -153 89 -173 51 -22
414 -34 892 -31 l374 3 43 75 c23 41 47 98 53 125 23 100 28 674 21 2410 l-7
1770 -115 160 c-128 178 -177 255 -215 340 -68 154 -90 378 -74 737 19 432 23
593 16 651 -10 81 -33 104 -121 122 -90 19 -308 27 -404 15z m64 -200 c33 -5
126 -10 208 -10 l147 0 0 -215 0 -215 -240 0 -240 0 0 211 c0 225 5 256 43
245 12 -4 49 -11 82 -16z m279 -642 c10 -14 16 -45 16 -83 0 -33 7 -107 15
-165 8 -58 15 -115 15 -127 l0 -23 -220 0 c-121 0 -220 3 -220 8 0 28 31 379
35 389 4 13 61 18 242 21 95 2 103 1 117 -20z m120 -699 c63 -154 152 -310
260 -454 l86 -115 0 -482 c0 -475 -12 -824 -28 -840 -10 -10 -122 56 -436 256
-133 84 -267 168 -298 185 -55 31 -57 32 -67 12 -40 -75 31 -145 424 -416 288
-199 382 -278 400 -335 8 -25 -2 -90 -14 -90 -20 0 -637 410 -911 605 -180
129 -336 258 -345 285 -4 11 -3 29 0 40 8 26 44 26 127 0 83 -26 115 -26 123
0 11 35 -38 103 -115 160 -131 97 -145 131 -145 345 1 222 18 273 184 543 110
180 152 257 177 327 33 92 41 95 309 95 l220 0 49 -121z m-719 -1784 c148 -95
770 -513 944 -633 l93 -65 -4 -196 c-3 -115 -10 -208 -17 -224 l-11 -29 -58
32 c-88 50 -382 240 -773 501 l-356 237 -6 123 c-9 151 -9 297 -1 327 4 12 14
22 24 22 10 0 84 -43 165 -95z m-111 -622 c92 -49 435 -278 699 -468 282 -202
463 -348 469 -377 5 -30 -1 -58 -13 -58 -16 0 -211 126 -660 426 -500 334
-575 387 -594 424 -26 50 -18 86 19 89 4 1 40 -16 80 -36z m-26 -330 c114 -64
223 -134 627 -398 237 -155 463 -301 503 -325 l72 -42 0 -407 c0 -410 -12
-708 -29 -755 -6 -13 -19 -29 -29 -35 -46 -25 -223 -34 -692 -35 l-485 -1 -18
65 c-13 47 -20 129 -27 300 -11 262 -13 1526 -4 1608 8 61 15 63 82 25z"/>
<path d="M1406 1259 c-68 -10 -86 -22 -86 -56 0 -49 71 -59 562 -83 207 -11
230 -10 263 5 44 21 77 62 73 89 -6 43 -58 49 -418 52 -184 1 -361 -2 -394 -7z"/>
<path d="M1514 950 c-55 -4 -117 -13 -137 -19 -61 -21 -77 -78 -30 -108 24
-16 60 -18 321 -21 308 -4 479 7 519 33 15 10 23 25 23 45 0 37 -31 55 -121
69 -70 12 -416 12 -575 1z"/>
<path d="M3314 6611 c-81 -10 -117 -34 -168 -111 l-43 -65 10 -846 10 -847
-85 -148 c-155 -271 -206 -387 -233 -537 -40 -216 -43 -1261 -4 -1342 16 -33
49 -44 68 -21 22 26 31 236 31 738 l0 498 51 137 c71 191 136 332 231 500 l81
144 -7 362 c-3 199 -9 460 -12 580 l-7 217 177 0 176 0 0 -577 0 -577 79 -145
c233 -431 259 -519 268 -913 l6 -246 -284 -4 c-265 -3 -287 -5 -330 -24 -35
-17 -51 -32 -67 -65 -41 -84 -46 -166 -46 -694 0 -533 5 -614 47 -690 44 -80
96 -91 530 -111 l147 -7 0 -618 0 -619 -520 0 -520 0 0 758 c-1 750 -8 1031
-30 1071 -12 24 -42 27 -59 7 -25 -30 -32 -203 -38 -1022 l-6 -851 64 -86 64
-86 536 -1 536 0 67 112 67 112 -11 1714 -10 1714 -66 167 c-67 168 -156 354
-246 514 l-50 88 4 792 c3 848 1 900 -46 969 -12 18 -34 39 -50 46 -33 16
-224 24 -312 13z m656 -3971 l0 -610 -316 0 -315 0 6 503 c3 276 8 544 11 595
5 85 7 92 27 93 458 20 582 26 585 27 1 1 2 -272 2 -608z"/>
<path d="M4957 6610 c-63 -11 -92 -31 -118 -82 -40 -78 -44 -198 -26 -851 l17
-598 -221 -250 -222 -250 7 -217 c8 -248 22 -443 37 -520 8 -38 17 -57 35 -69
23 -14 26 -14 43 1 38 34 45 98 51 443 l5 332 137 158 c76 87 158 185 183 218
60 79 115 190 115 231 0 82 102 130 223 105 123 -25 183 -76 220 -188 36 -105
115 -217 280 -393 l145 -156 -15 -884 c-8 -487 -15 -1283 -16 -1770 -2 -850
-1 -887 17 -935 22 -56 26 -143 12 -279 l-8 -89 -132 7 c-72 3 -366 9 -654 12
-302 4 -525 11 -528 16 -3 5 -7 71 -8 146 -1 120 2 145 23 207 22 65 24 89 30
365 10 507 -8 1235 -44 1745 -23 317 -39 425 -65 425 -40 0 -48 -168 -60
-1265 -6 -528 -15 -1050 -20 -1160 -5 -110 -13 -257 -16 -326 -7 -121 -6 -128
19 -182 32 -70 65 -102 143 -138 111 -51 204 -64 444 -63 246 1 396 21 605 80
201 58 369 153 409 233 11 21 15 382 20 1973 l7 1948 -225 247 -226 248 0 255
c0 140 -3 481 -7 756 l-6 502 -156 6 c-335 13 -408 14 -454 6z m473 -840 l0
-310 -215 0 -215 0 0 310 0 310 215 0 215 0 0 -310z"/>
<path d="M5080 4321 c-190 -40 -341 -135 -400 -251 -42 -82 -17 -195 56 -260
46 -40 78 -39 209 5 57 19 142 42 190 51 94 19 100 18 305 -36 75 -20 92 -21
145 -11 140 26 217 140 180 268 -55 187 -380 298 -685 234z"/>
<path d="M5092 3469 c-162 -9 -276 -32 -308 -64 -46 -46 -69 -190 -61 -380 7
-156 25 -251 61 -330 36 -79 43 -80 391 -80 315 1 394 9 432 48 44 43 65 161
66 362 2 260 -27 381 -97 410 -75 32 -266 45 -484 34z m415 -356 c-3 -116 -10
-173 -23 -213 -28 -83 -33 -84 -321 -88 l-243 -4 0 231 0 231 296 0 297 0 -6
-157z"/>
</g>
</svg>
