<?xml version="1.0" encoding="UTF-8" standalone="no"?>
<!-- Created with Inkscape (http://www.inkscape.org/) -->

<svg
   version="1.1"
   id="svg2"
   width="92"
   height="149"
   viewBox="0 0 92 149"
   sodipodi:docname="konak.svg"
   inkscape:version="1.2.2 (732a01da63, 2022-12-09)"
   xmlns:inkscape="http://www.inkscape.org/namespaces/inkscape"
   xmlns:sodipodi="http://sodipodi.sourceforge.net/DTD/sodipodi-0.dtd"
   xmlns="http://www.w3.org/2000/svg"
   xmlns:svg="http://www.w3.org/2000/svg">
  <defs
     id="defs6" />
  <sodipodi:namedview
     id="namedview4"
     pagecolor="#505050"
     bordercolor="#eeeeee"
     borderopacity="1"
     inkscape:showpageshadow="0"
     inkscape:pageopacity="0"
     inkscape:pagecheckerboard="0"
     inkscape:deskcolor="#505050"
     showgrid="false"
     inkscape:zoom="3.9721368"
     inkscape:cx="10.3219"
     inkscape:cy="66.966475"
     inkscape:window-width="1920"
     inkscape:window-height="1017"
     inkscape:window-x="-8"
     inkscape:window-y="-8"
     inkscape:window-maximized="1"
     inkscape:current-layer="g8" />
  <g
     inkscape:groupmode="layer"
     inkscape:label="Image"
     id="g8">
    <path
       style="fill:#e6e6e6;fill-opacity:1"
       d="M 11.35881,145.57513 C 6.472923,141.393 3.2135687,134.3367 2.3496088,126.07078 1.6924047,119.78299 2.7699178,114.23145 6.2452052,106 7.2901403,103.525 8.5712921,97.752226 9.0922092,93.171614 10.472662,81.032798 15.0336,73.588472 23.865547,69.058694 28.158484,66.856909 31.111963,63.792379 33.512803,59.0487 35.740069,54.647976 36.887446,35.030051 35.112146,31.703027 34.325397,30.228609 34.029776,24.704406 34.218306,15 L 34.5,0.5 h 12 12 L 58.781694,15 c 0.184231,9.483148 -0.113785,15.241217 -0.861345,16.642308 -0.73349,1.374725 -1.012439,6.211742 -0.778538,13.5 0.327512,10.205136 0.641154,11.828846 3.090742,16.000606 1.909653,3.252226 4.322773,5.543941 8.05638,7.651058 9.965993,5.624458 14.116282,12.258637 15.280833,24.426196 0.402093,4.201172 1.939349,10.433022 3.635013,14.735912 3.869751,9.81979 4.410627,15.0908 2.367956,23.07645 -1.912404,7.47637 -5.479621,13.12877 -10.079793,15.97183 C 76.847201,148.63952 74.511508,149 66.562415,149 c -9.488847,0 -9.694512,-0.0493 -9.381966,-2.25 0.296882,-2.09039 0.935941,-2.28547 9.008555,-2.75 7.905307,-0.4549 8.963488,-0.76337 11.732248,-3.42008 3.151925,-3.02437 5.507098,-8.34851 6.560119,-14.82992 L 85.090626,122 H 73.666633 62.242641 l -1.251028,3.02025 C 58.172217,131.82687 49.877544,135.75337 42.33183,133.85334 37.853126,132.72559 31,126.46248 31,123.49712 31,122.25442 29.045721,122 19.5,122 6.3319687,122 6.5211412,121.81874 9.5136176,131.5685 12.400968,140.97574 15.838213,143.36502 27.397763,144 35.666667,144.45422 36.5,144.68311 36.5,146.5 c 0,1.85559 -0.760544,2.02034 -10.533048,2.28163 l -10.533047,0.28163 z M 53.076923,125.07692 C 54.684615,123.46923 56,121.25137 56,120.14835 56,115.77016 58.3275,115 71.558819,115 H 83.97478 l -2.48739,-5.62443 C 80.119326,106.28213 79,103.13213 79,102.37557 79,101.30051 76.830998,101 69.071429,101 58.512339,101 56,100.0185 56,95.893388 56,92.572428 52.973583,89.086714 49.181015,88.039535 43.625651,86.505626 38.938725,89.183825 37,95 c -0.825,2.475 -1.95,4.830609 -2.5,5.23469 -0.55,0.40408 -5.327204,0.74158 -10.616009,0.75 L 14.267981,101 11.89397,107.25 c -1.305706,3.4375 -2.5285015,6.5875 -2.7173236,7 -0.1888222,0.4125 5.2066866,0.75689 11.9900206,0.76531 6.783333,0.008 12.839299,0.34592 13.457701,0.75 0.618402,0.40408 1.456721,2.26577 1.86293,4.1371 1.742676,8.02817 10.884516,10.87962 16.589625,5.17451 z M 32.549479,89.737218 c 2.849707,-5.797414 9.508909,-9.255468 15.960307,-8.288021 5.22122,0.78297 10.543718,4.851547 12.488308,9.546201 C 62.23122,93.972427 62.314366,94 70.05845,94 h 7.815809 L 77.334224,90.25 C 76.438975,84.03339 72.127401,78.008612 66,74.412118 62.975,72.636587 59.107975,69.574059 57.40661,67.606501 54.261322,63.969104 51,55.71154 51,51.385165 51,49.236153 50.568128,49 46.638052,49 h -4.361947 l -1.136635,5.659724 c -1.758576,8.756595 -5.259635,13.789428 -13.079281,18.801696 -7.132929,4.572092 -9.996131,7.803333 -11.907237,13.437803 -2.310861,6.81306 -2.036808,7.1061 6.597048,7.054105 l 7.75,-0.04667 z M 51,37.445209 v -5.554791 l -4.75,0.304791 c -4.729342,0.303465 -4.751377,0.321558 -5.066635,4.159952 C 40.704257,42.188513 41.349707,43 46.468615,43 H 51 Z M 53,21.5 V 17 H 46.5 40 v 4.5 4.5 h 6.5 6.5 z m 0,-13 C 53,6.0897436 52.766667,6 46.5,6 40.233333,6 40,6.0897436 40,8.5 40,10.910256 40.233333,11 46.5,11 52.766667,11 53,10.910256 53,8.5 Z M 44.170743,146.82407 C 44.610552,143.71967 49.5,143.42234 49.5,146.5 c 0,1.45237 -0.77469,2.08873 -2.829257,2.32407 -2.460212,0.2818 -2.78631,0.0209 -2.5,-2 z"
       id="path293" />
  </g>
</svg>
