<?xml version="1.0" encoding="UTF-8" standalone="no"?>
<!-- Created with Inkscape (http://www.inkscape.org/) -->

<svg
   width="14mm"
   height="40.5mm"
   viewBox="0 0 14 40.5"
   version="1.1"
   id="svg1642"
   inkscape:version="1.2.2 (732a01da63, 2022-12-09)"
   sodipodi:docname="pivo.svg"
   xmlns:inkscape="http://www.inkscape.org/namespaces/inkscape"
   xmlns:sodipodi="http://sodipodi.sourceforge.net/DTD/sodipodi-0.dtd"
   xmlns="http://www.w3.org/2000/svg"
   xmlns:svg="http://www.w3.org/2000/svg">
  <sodipodi:namedview
     id="namedview1644"
     pagecolor="#505050"
     bordercolor="#eeeeee"
     borderopacity="1"
     inkscape:showpageshadow="0"
     inkscape:pageopacity="0"
     inkscape:pagecheckerboard="0"
     inkscape:deskcolor="#505050"
     inkscape:document-units="mm"
     showgrid="false"
     inkscape:zoom="8.4359982"
     inkscape:cx="18.136561"
     inkscape:cy="61.87768"
     inkscape:window-width="1920"
     inkscape:window-height="1017"
     inkscape:window-x="-8"
     inkscape:window-y="-8"
     inkscape:window-maximized="1"
     inkscape:current-layer="layer1" />
  <defs
     id="defs1639" />
  <g
     inkscape:label="Слой 1"
     inkscape:groupmode="layer"
     id="layer1">
    <path
       style="fill:#e6e6e6;stroke-width:0.264583;fill-opacity:1"
       d="m 1.8557575,37.717498 -0.74236,-0.6382 -0.078,-7.44013 c -0.0888,-8.47075 0.0393,-9.53239 1.51601,-12.56073 1.21426,-2.49021 2.03486,-8.1781896 1.26212,-8.7483896 -1.10022,-0.8118298 -1.07672,-2.1700898 0.0538,-3.1108298 0.30433,-0.25324 0.55333,-0.62961 0.55333,-0.83638 0,-0.5993297 1.55592,-1.7458997 2.36923,-1.7458997 0.40763,0 1.18114,-0.18384 1.71892,-0.40854 2.0533695,-0.85795 4.1139295,0.58288 4.1139295,2.8766297 0,0.49878 0.18061,1.33913 0.40136,1.86745 0.5121,1.22564 0.28918,2.0973398 -0.76097,2.9756098 -0.45706,0.3822496 -0.89138,1.0050696 -0.96517,1.3840296 -0.0789,0.40538 -0.49165,0.90862 -1.00256,1.22245 -1.1682395,0.71758 -1.0548295,1.85317 0.50151,5.02204 l 1.16437,2.37077 0.0827,8.53816 0.0827,8.53816 -0.66599,0.666 -0.666,0.66599 h -4.0983095 -4.09832 z m 8.8648495,-1.28004 c 0.0766,-0.39916 -0.12881,-0.46302 -1.4897095,-0.46302 -1.09708,0 -1.62127,-0.11122 -1.71851,-0.36463 -0.24112,-0.62835 0.40197,-0.95828 1.8678,-0.95828 h 1.4140795 l -0.0779,-7.34322 -0.0779,-7.34322 -1.1305395,-2.26006 c -0.67627,-1.35192 -1.19567,-2.80991 -1.29261,-3.62842 -0.22364,-1.88828 -0.69211,-2.2553 -2.10075,-1.64586 l -1.08432,0.46913 -0.15705,1.32607 c -0.0904,0.76311 -0.6178,2.24245 -1.24234,3.4846 -0.79856,1.58826 -1.12739,2.6095 -1.24469,3.86558 l -0.15941,1.70707 1.16315,-0.52774 c 3.55561,-1.61321 6.3097698,0.60714 6.3181698,5.09359 0.008,4.49306 -2.6970798,6.79765 -6.1743998,5.25947 l -1.22958,-0.5439 v 2.05769 c 0,1.13173 0.0824,2.14004 0.18301,2.2407 0.45292,0.45292 8.1412195,0.0556 8.2335695,-0.42555 z m -3.9099995,-4.56854 c 2.23008,-1.15322 2.23008,-6.77532 0,-7.92854 -2.62509,-1.35749 -4.50658,0.2742 -4.50658,3.90825 0,3.73394 1.85692,5.39048 4.50658,4.02029 z m 3.1105298,-20.30229 c 0.1504597,-0.1819 0.3138697,-0.67909 0.3631197,-1.10487 0.0619,-0.5353896 0.33437,-0.9086396 0.88331,-1.2102296 0.93371,-0.51298 1.19256,-1.6482198 0.54019,-2.3690798 -0.31533,-0.34843 -0.38144,-0.74593 -0.25527,-1.53495 0.25866,-1.6175597 -2.1443595,-3.1892197 -2.9307495,-1.9168097 -0.0899,0.14552 -0.59361,0.26459 -1.11926,0.26459 -0.98286,0 -1.92345,0.6022797 -1.92345,1.2316297 0,0.19573 0.15632,0.35587 0.34737,0.35587 1.09341,0 2.56305,2.69558 2.56305,4.7010798 0,1.6596196 0.79155,2.4775596 1.5316898,1.5827696 z"
       id="path1533" />
  </g>
</svg>
