<?xml version="1.0" encoding="UTF-8" standalone="no"?>
<!-- Created with Inkscape (http://www.inkscape.org/) -->

<svg
   width="15mm"
   height="40mm"
   viewBox="0 0 15 40"
   version="1.1"
   id="svg1642"
   inkscape:version="1.2.2 (732a01da63, 2022-12-09)"
   sodipodi:docname="vermut.svg"
   xmlns:inkscape="http://www.inkscape.org/namespaces/inkscape"
   xmlns:sodipodi="http://sodipodi.sourceforge.net/DTD/sodipodi-0.dtd"
   xmlns="http://www.w3.org/2000/svg"
   xmlns:svg="http://www.w3.org/2000/svg">
  <sodipodi:namedview
     id="namedview1644"
     pagecolor="#505050"
     bordercolor="#eeeeee"
     borderopacity="1"
     inkscape:showpageshadow="0"
     inkscape:pageopacity="0"
     inkscape:pagecheckerboard="0"
     inkscape:deskcolor="#505050"
     inkscape:document-units="mm"
     showgrid="false"
     inkscape:zoom="8.4359982"
     inkscape:cx="18.136561"
     inkscape:cy="71.24231"
     inkscape:window-width="1920"
     inkscape:window-height="1017"
     inkscape:window-x="-8"
     inkscape:window-y="-8"
     inkscape:window-maximized="1"
     inkscape:current-layer="layer1" />
  <defs
     id="defs1639" />
  <g
     inkscape:label="Слой 1"
     inkscape:groupmode="layer"
     id="layer1">
    <path
       style="fill:#e6e6e6;stroke-width:0.264583;fill-opacity:1"
       d="m 0.76707201,39.361019 c -0.289047,-0.75324 -0.172328,-2.11754 0.226227,-2.64432 0.26403989,-0.34899 0.34686689,-0.89518 0.25843789,-1.70422 -0.48512489,-4.43841 -1.16260989,-19.871611 -0.89099989,-20.297111 0.165955,-0.25997 1.29830989,-1.2172 2.51634389,-2.12717 l 2.214609,-1.65449 0.07162,-5.3569696 0.07162,-5.35696997 h 2.248958 2.248959 l 0.07737,5.42395997 0.07737,5.4239596 2.0011501,1.45521 c 2.851595,2.07364 3.068012,2.40087 2.879829,4.35445 -0.53054,5.507661 -1.180858,19.293711 -0.924688,19.602381 0.156053,0.18803 0.24741,0.97662 0.203015,1.75242 l -0.08072,1.41054 -6.5183811,0.0707 c -5.771056,0.0626 -6.53699489,0.0222 -6.68072889,-0.35237 z M 13.040141,37.922899 c 0,-0.41979 -0.17774,-0.53001 -0.859896,-0.53322 -1.08903,-0.005 -1.644586,-0.35152 -1.435921,-0.89529 0.09957,-0.25948 0.473262,-0.42358 0.964596,-0.42358 0.586989,0 0.802394,-0.12415 0.803321,-0.46302 6.88e-4,-0.25466 0.237353,-4.39208 0.525901,-9.19427 0.288548,-4.80219 0.526102,-9.299011 0.527899,-9.992941 l 0.0033,-1.26169 -2.38125,-1.75302 -2.3812491,-1.75302 V 9.5743285 7.4958087 h -1.322917 -1.322917 l -0.0057,2.0505197 -0.0057,2.0505196 -1.383357,0.99222 c -0.760846,0.54571 -1.881395,1.43868 -2.490108,1.98437 l -1.1067519,0.99216 0.5018609,8.598961 c 0.276023,4.72943 0.575178,9.3431 0.66479,10.25261 l 0.162929,1.65364 h 0.780995 c 1.588544,0 1.364314,1.02822 -0.272096,1.24771 -0.826722,0.11089 -1.080184,0.26088 -1.080184,0.63921 v 0.49433 h 5.55625 5.5562501 z m -9.1527801,-7.77405 c -0.42985,-1.12017 0.03249,-10.36055 0.553822,-11.06876 1.636513,-2.223151 5.029725,-1.903541 6.2834421,0.59183 0.660604,1.31485 0.698937,10.43107 0.04492,10.68204 -0.9119021,0.34993 -6.7357981,0.17636 -6.8821821,-0.20511 z m 6.1377151,-3.2221 c 0.09351,-0.37257 0.117222,-2.05665 0.0527,-3.74239 l -0.1173191,-3.06499 -0.845581,-0.75553 c -2.523336,-2.254601 -4.276815,-0.35354 -4.276815,4.63678 0,3.87367 -0.201277,3.60353 2.68489,3.60353 h 2.332112 z"
       id="path1571" />
  </g>
</svg>
