<?xml version="1.0" encoding="UTF-8" standalone="no"?>
<!-- Created with Inkscape (http://www.inkscape.org/) -->

<svg
   width="14mm"
   height="40.5mm"
   viewBox="0 0 14 40.5"
   version="1.1"
   id="svg1642"
   inkscape:version="1.2.2 (732a01da63, 2022-12-09)"
   sodipodi:docname="vodka.svg"
   xmlns:inkscape="http://www.inkscape.org/namespaces/inkscape"
   xmlns:sodipodi="http://sodipodi.sourceforge.net/DTD/sodipodi-0.dtd"
   xmlns="http://www.w3.org/2000/svg"
   xmlns:svg="http://www.w3.org/2000/svg">
  <sodipodi:namedview
     id="namedview1644"
     pagecolor="#505050"
     bordercolor="#eeeeee"
     borderopacity="1"
     inkscape:showpageshadow="0"
     inkscape:pageopacity="0"
     inkscape:pagecheckerboard="0"
     inkscape:deskcolor="#505050"
     inkscape:document-units="mm"
     showgrid="false"
     inkscape:zoom="8.4359982"
     inkscape:cx="18.136561"
     inkscape:cy="33.428172"
     inkscape:window-width="1920"
     inkscape:window-height="1017"
     inkscape:window-x="-8"
     inkscape:window-y="-8"
     inkscape:window-maximized="1"
     inkscape:current-layer="layer1" />
  <defs
     id="defs1639" />
  <g
     inkscape:label="Слой 1"
     inkscape:groupmode="layer"
     id="layer1">
    <path
       style="fill:#e6e6e6;stroke-width:0.264583;fill-opacity:1"
       d="m 1.9494421,39.218798 c -0.33217,-0.50694 -0.38626,-0.96968 -0.23972,-2.05052 0.10409,-0.76771 0.20508,-4.90818 0.22443,-9.20104 0.0304,-6.74594 0.089,-7.80521 0.43205,-7.80521 0.52724,0 1.02376,15.21545 0.52682,16.14399 -0.16643,0.31096 -0.26375,0.97297 -0.21627,1.47112 l 0.0863,0.90573 4.40338,0.0724 4.4033799,0.0724 0.10342,-1.08439 c 0.0569,-0.59641 -0.009,-1.15383 -0.14633,-1.23873 -0.15478,-0.0957 -0.18285,-4.48644 -0.0738,-11.5462 l 0.17592,-11.39185 -1.35135,-1.36835 c -0.8560199,-0.86679 -1.4176599,-1.69463 -1.5322499,-2.2584998 -0.25108,-1.2355301 -2.93964,-1.5762201 -2.93964,-0.3725101 0,0.4530599 -0.4822,1.2020999 -1.45521,2.2604899 l -1.45521,1.5829 v 2.36793 c 0,2.25597 -0.25426,3.04771 -0.80131,2.49518 -0.12432,-0.12557 -0.26277,-1.31116 -0.30767,-2.63465 l -0.0816,-2.40634 1.48109,-1.60015 1.4811,-1.60016 -0.12647,-4.5976299 c -0.152,-5.52556001 -0.27511,-5.30456001 2.89332,-5.19372001 l 2.20846,0.0773 0.0313,4.83434001 0.0313,4.8343501 1.5133899,1.5866298 1.51339,1.58663 -0.0503,11.57069 c -0.0277,6.36389 -0.0287,12.22019 -0.002,13.01403 0.0746,2.24196 -9.3758199,3.54009 -10.7296699,1.47385 z m 6.76676,-33.6088499 v -1.98438 h -1.45521 -1.4552 v 1.98438 1.98437 h 1.4552 1.45521 z m -4.00453,20.0640899 c -0.81977,-0.21819 -1.09503,-4.21111 -0.34219,-4.96394 0.48976,-0.48977 4.5728,-0.5966 5.42245,-0.14188 0.7675399,0.41077 0.7675399,4.59768 0,5.00846 -0.49245,0.26355 -4.18961,0.3344 -5.08026,0.0974 z m 4.36694,-1.7417 c 0.0877,-0.32742 0.16116,-0.98226 0.16315,-1.4552 l 0.004,-0.8599 h -1.98437 -1.98437 v 1.45521 1.45521 h 1.82122 c 1.66502,0 1.83491,-0.0511 1.98077,-0.59532 z m -5.05876,-5.79415 c -2.10304,-2.10442 2.72552,-4.45757 5.88698,-2.86897 2.1154899,1.06301 0.9588699,3.45971 -1.30927,2.71301 -1.27655,-0.42026 -1.67146,-0.38408 -3.85011,0.35269 -0.21828,0.0738 -0.5457,-0.0147 -0.7276,-0.19673 z"
       id="path1359" />
  </g>
</svg>
