<?xml version="1.0" encoding="UTF-8" standalone="no"?>
<!-- Created with Inkscape (http://www.inkscape.org/) -->

<svg
   width="14mm"
   height="40mm"
   viewBox="0 0 14 40"
   version="1.1"
   id="svg1642"
   inkscape:version="1.2.2 (732a01da63, 2022-12-09)"
   sodipodi:docname="whiskey.svg"
   xmlns:inkscape="http://www.inkscape.org/namespaces/inkscape"
   xmlns:sodipodi="http://sodipodi.sourceforge.net/DTD/sodipodi-0.dtd"
   xmlns="http://www.w3.org/2000/svg"
   xmlns:svg="http://www.w3.org/2000/svg">
  <sodipodi:namedview
     id="namedview1644"
     pagecolor="#505050"
     bordercolor="#eeeeee"
     borderopacity="1"
     inkscape:showpageshadow="0"
     inkscape:pageopacity="0"
     inkscape:pagecheckerboard="0"
     inkscape:deskcolor="#505050"
     inkscape:document-units="mm"
     showgrid="false"
     inkscape:zoom="8.4359982"
     inkscape:cx="18.136561"
     inkscape:cy="14.461833"
     inkscape:window-width="1920"
     inkscape:window-height="1017"
     inkscape:window-x="-8"
     inkscape:window-y="-8"
     inkscape:window-maximized="1"
     inkscape:current-layer="layer1" />
  <defs
     id="defs1639" />
  <g
     inkscape:label="Слой 1"
     inkscape:groupmode="layer"
     id="layer1">
    <path
       style="fill:#e6e6e6;stroke-width:0.264583;fill-opacity:1"
       d="m 0.86598665,39.327202 c -0.35905,-0.51262 -0.41188,-2.23596 -0.41188,-13.43755 V 13.040139 l 1.30833005,-1.28866 c 0.71959,-0.70876 1.54231,-1.83538 1.82829,-2.503594 0.66727,-1.559169 0.98261,-3.604247 0.5929,-3.845103 -0.40309,-0.249123 -0.37946,-4.185931 0.0276,-4.592959 0.48526,-0.485263 5.3456099,-0.429469 5.7568799,0.06609 0.2215604,0.266959 0.2684504,1.011074 0.1542104,2.447396 -0.4276604,5.377088 -0.2415204,6.11972 2.098169,8.37131 l 1.33053,1.28042 0.0734,12.763733 c 0.0726,12.62118 0.0672,12.77163 -0.48222,13.4701 l -0.55563,0.70637 H 6.9322266 c -5.5430899,0 -5.6624299,-0.0116 -6.06620995,-0.58804 z M 12.307446,38.803992 c 0.21474,-0.21475 0.3175,-1.44335 0.3175,-3.79632 v -3.47883 l -0.99219,-0.40928 c -0.5457,-0.2251 -3.0372994,-1.36313 -5.5368694,-2.52895 -2.4995799,-1.16582 -4.6129399,-2.05143 -4.6963599,-1.96801 -0.26218,0.26218 -0.16458,11.10755 0.10637,11.82021 l 0.25803,0.67868 h 5.1130099 c 3.6240094,0 5.2054694,-0.0925 5.4305094,-0.3175 z m -9.1574693,-2.26219 c 0.0786,-0.40968 0.4999,-0.47064 3.6574199,-0.52919 3.4885104,-0.0647 4.4831794,0.10399 4.1160394,0.69805 -0.11988,0.19397 -1.4898394,0.29416 -4.0220494,0.29416 -3.5148299,0 -3.8327199,-0.0392 -3.7514099,-0.46302 z m 3.0588199,-1.58664 c -2.5191199,-0.0679 -3.1088499,-0.15749 -3.1088499,-0.47228 0,-0.32431 0.65548,-0.38847 3.9687499,-0.38847 3.2026704,0 3.9687494,0.0707 3.9687494,0.36601 0,0.35101 -0.902919,0.74303 -1.4552094,0.63181 -0.14552,-0.0293 -1.66357,-0.091 -3.37344,-0.13707 z m 6.3693994,-4.98449 c -0.083,-0.4071 -10.2377193,-5.40126 -10.9824693,-5.40126 -0.49738,0 -0.4295,0.47508 0.11515,0.80598 0.6645,0.40371 10.4744793,4.96617 10.7350293,4.99268 0.11981,0.0122 0.17934,-0.16664 0.13229,-0.3974 z m -0.22725,-3.35074 -0.009,-1.38906 -5.0209594,-2.38125 c -2.7615199,-1.30969 -5.2042999,-2.42095 -5.4283999,-2.46947 -0.33617,-0.0728 -0.39345,0.17265 -0.32744,1.40309 l 0.08,1.49131 5.0270799,2.34586 c 2.7649,1.29022 5.1759094,2.35547 5.3578094,2.36722 0.2264,0.0146 0.32776,-0.41682 0.32132,-1.3677 z m 0.274,-3.06192 c 0,-0.36035 -0.93621,-0.92422 -3.7041694,-2.23098 -2.44403,-1.15383 -3.7041699,-1.88987 -3.7041699,-2.1636 0,-0.22817 0.1126,-0.41486 0.2502099,-0.41486 0.13762,0 1.68136,0.65485 3.43055,1.45521 1.7491794,0.80037 3.3034694,1.45521 3.4539594,1.45521 0.17664,0 0.27362,-1.44979 0.27362,-4.09038 v -4.090373 l -1.08516,-1.00286 c -0.59684,-0.55156 -1.382059,-1.50886 -1.7449294,-2.12733 l -0.65978,-1.124476 h -2.20599 c -1.9823399,0 -2.2232199,0.05429 -2.3759499,0.535526 -0.0935,0.29453 -0.82696,1.24515 -1.62995,2.11247 -1.11412,1.20338 -1.49322,1.82486 -1.60034,2.62349 -0.22068,1.64524 0.0521,2.25904 1.24224,2.79574 1.24638,0.562043 1.4929,1.355953 0.33642,1.083423 -1.30457,-0.30743 -1.52135,-0.2927 -1.52135,0.10335 0,0.2481 1.97743,1.32556 5.4239499,2.95539 2.98318,1.41071 5.5132594,2.57446 5.6223994,2.58611 0.10914,0.0116 0.19844,-0.19583 0.19844,-0.46106 z M 8.8215566,7.338417 c -0.0909,-0.454753 -0.16536,-1.055747 -0.16536,-1.335542 0,-0.456042 -0.17124,-0.500563 -1.65365,-0.429948 l -1.6536399,0.07877 -0.14446,1.256771 -0.14445,1.256771 h 1.9634599 1.96347 z m 0.3638,-4.200261 V 1.81524 h -1.69815 c -0.93398,0 -1.88648,-0.07227 -2.1166699,-0.160599 -0.35096,-0.134678 -0.41851,0.07885 -0.41851,1.322916 v 1.483516 h 2.1166699 2.11666 z"
       id="path1244" />
  </g>
</svg>
